<mxfile host="app.diagrams.net" modified="2024-04-15T02:10:02.149Z" agent="Mozilla/5.0 (Windows NT 10.0; Win64; x64) AppleWebKit/537.36 (KHTML, like Gecko) Chrome/123.0.0.0 Safari/537.36" etag="6pcoqClEyRqLzKB6GKbQ" version="24.2.3" type="device">
  <diagram name="Página-1" id="ERkhMEmfL_ZBwqkAJkpp">
    <mxGraphModel dx="1075" dy="514" grid="1" gridSize="10" guides="1" tooltips="1" connect="1" arrows="1" fold="1" page="1" pageScale="1" pageWidth="827" pageHeight="1169" math="0" shadow="0">
      <root>
        <mxCell id="0" />
        <mxCell id="1" parent="0" />
        <mxCell id="R2l4qmwrGojXDF6G0puY-67" value="" style="edgeStyle=orthogonalEdgeStyle;rounded=0;orthogonalLoop=1;jettySize=auto;html=1;shape=link;" edge="1" parent="1" source="R2l4qmwrGojXDF6G0puY-3" target="R2l4qmwrGojXDF6G0puY-66">
          <mxGeometry relative="1" as="geometry" />
        </mxCell>
        <mxCell id="R2l4qmwrGojXDF6G0puY-3" value="" style="image;aspect=fixed;perimeter=ellipsePerimeter;html=1;align=center;shadow=0;dashed=0;spacingTop=3;image=img/lib/active_directory/firewall.svg;" vertex="1" parent="1">
          <mxGeometry x="247.8" y="340.02" width="22.2" height="36.39" as="geometry" />
        </mxCell>
        <mxCell id="R2l4qmwrGojXDF6G0puY-4" value="" style="image;aspect=fixed;perimeter=ellipsePerimeter;html=1;align=center;shadow=0;dashed=0;spacingTop=3;image=img/lib/active_directory/pda.svg;" vertex="1" parent="1">
          <mxGeometry x="630" y="423.71000000000004" width="27" height="50" as="geometry" />
        </mxCell>
        <mxCell id="R2l4qmwrGojXDF6G0puY-6" value="" style="image;aspect=fixed;perimeter=ellipsePerimeter;html=1;align=center;shadow=0;dashed=0;spacingTop=3;image=img/lib/active_directory/windows_server.svg;" vertex="1" parent="1">
          <mxGeometry x="153.5" y="418.0000000000001" width="31.5" height="38.42" as="geometry" />
        </mxCell>
        <mxCell id="R2l4qmwrGojXDF6G0puY-7" value="" style="image;aspect=fixed;perimeter=ellipsePerimeter;html=1;align=center;shadow=0;dashed=0;spacingTop=3;image=img/lib/active_directory/windows_server.svg;" vertex="1" parent="1">
          <mxGeometry x="228.74" y="417.99999999999994" width="30.5" height="37.2" as="geometry" />
        </mxCell>
        <mxCell id="R2l4qmwrGojXDF6G0puY-15" value="" style="endArrow=none;html=1;rounded=0;" edge="1" parent="1">
          <mxGeometry width="50" height="50" relative="1" as="geometry">
            <mxPoint x="330" y="480" as="sourcePoint" />
            <mxPoint x="330" y="340" as="targetPoint" />
          </mxGeometry>
        </mxCell>
        <mxCell id="R2l4qmwrGojXDF6G0puY-18" value="" style="endArrow=none;html=1;rounded=0;" edge="1" parent="1">
          <mxGeometry width="50" height="50" relative="1" as="geometry">
            <mxPoint x="20" y="480" as="sourcePoint" />
            <mxPoint x="330" y="480" as="targetPoint" />
            <Array as="points" />
          </mxGeometry>
        </mxCell>
        <mxCell id="R2l4qmwrGojXDF6G0puY-21" value="" style="endArrow=none;html=1;rounded=0;" edge="1" parent="1">
          <mxGeometry width="50" height="50" relative="1" as="geometry">
            <mxPoint x="20" y="480" as="sourcePoint" />
            <mxPoint x="20" y="340" as="targetPoint" />
          </mxGeometry>
        </mxCell>
        <mxCell id="R2l4qmwrGojXDF6G0puY-27" value="" style="endArrow=none;html=1;rounded=0;" edge="1" parent="1">
          <mxGeometry width="50" height="50" relative="1" as="geometry">
            <mxPoint x="460" y="330" as="sourcePoint" />
            <mxPoint x="770" y="330" as="targetPoint" />
            <Array as="points" />
          </mxGeometry>
        </mxCell>
        <mxCell id="R2l4qmwrGojXDF6G0puY-28" value="" style="endArrow=none;html=1;rounded=0;" edge="1" parent="1">
          <mxGeometry width="50" height="50" relative="1" as="geometry">
            <mxPoint x="770" y="490" as="sourcePoint" />
            <mxPoint x="770" y="330" as="targetPoint" />
          </mxGeometry>
        </mxCell>
        <mxCell id="R2l4qmwrGojXDF6G0puY-29" value="" style="endArrow=none;html=1;rounded=0;" edge="1" parent="1">
          <mxGeometry width="50" height="50" relative="1" as="geometry">
            <mxPoint x="460" y="490" as="sourcePoint" />
            <mxPoint x="770" y="490" as="targetPoint" />
            <Array as="points" />
          </mxGeometry>
        </mxCell>
        <mxCell id="R2l4qmwrGojXDF6G0puY-30" value="" style="endArrow=none;html=1;rounded=0;" edge="1" parent="1">
          <mxGeometry width="50" height="50" relative="1" as="geometry">
            <mxPoint x="460" y="490" as="sourcePoint" />
            <mxPoint x="460" y="340" as="targetPoint" />
            <Array as="points">
              <mxPoint x="460" y="330" />
            </Array>
          </mxGeometry>
        </mxCell>
        <mxCell id="R2l4qmwrGojXDF6G0puY-40" value="" style="image;html=1;image=img/lib/clip_art/networking/Wireless_Router_N_128x128.png" vertex="1" parent="1">
          <mxGeometry x="600" y="345" width="40" height="60" as="geometry" />
        </mxCell>
        <mxCell id="R2l4qmwrGojXDF6G0puY-43" value="" style="image;aspect=fixed;perimeter=ellipsePerimeter;html=1;align=center;shadow=0;dashed=0;spacingTop=3;image=img/lib/active_directory/pda.svg;" vertex="1" parent="1">
          <mxGeometry x="580" y="423.71000000000004" width="27" height="50" as="geometry" />
        </mxCell>
        <mxCell id="R2l4qmwrGojXDF6G0puY-44" value="" style="image;aspect=fixed;perimeter=ellipsePerimeter;html=1;align=center;shadow=0;dashed=0;spacingTop=3;image=img/lib/active_directory/pda.svg;" vertex="1" parent="1">
          <mxGeometry x="530" y="423.71000000000004" width="27" height="50" as="geometry" />
        </mxCell>
        <mxCell id="R2l4qmwrGojXDF6G0puY-45" value="" style="image;aspect=fixed;perimeter=ellipsePerimeter;html=1;align=center;shadow=0;dashed=0;spacingTop=3;image=img/lib/active_directory/pda.svg;" vertex="1" parent="1">
          <mxGeometry x="480" y="423.71000000000004" width="27" height="50" as="geometry" />
        </mxCell>
        <mxCell id="R2l4qmwrGojXDF6G0puY-52" value="" style="endArrow=none;html=1;rounded=0;" edge="1" parent="1">
          <mxGeometry width="50" height="50" relative="1" as="geometry">
            <mxPoint x="20" y="340" as="sourcePoint" />
            <mxPoint x="330" y="340" as="targetPoint" />
            <Array as="points" />
          </mxGeometry>
        </mxCell>
        <mxCell id="R2l4qmwrGojXDF6G0puY-53" value="Prédio Adm" style="text;html=1;align=center;verticalAlign=middle;resizable=0;points=[];autosize=1;strokeColor=none;fillColor=none;" vertex="1" parent="1">
          <mxGeometry x="105" y="488" width="90" height="30" as="geometry" />
        </mxCell>
        <mxCell id="R2l4qmwrGojXDF6G0puY-54" value="Galpão" style="text;html=1;align=center;verticalAlign=middle;resizable=0;points=[];autosize=1;strokeColor=none;fillColor=none;" vertex="1" parent="1">
          <mxGeometry x="580" y="488" width="60" height="30" as="geometry" />
        </mxCell>
        <mxCell id="R2l4qmwrGojXDF6G0puY-60" value="" style="edgeStyle=orthogonalEdgeStyle;rounded=0;orthogonalLoop=1;jettySize=auto;html=1;shape=link;exitX=0.917;exitY=0.744;exitDx=0;exitDy=0;exitPerimeter=0;" edge="1" parent="1" source="R2l4qmwrGojXDF6G0puY-66" target="R2l4qmwrGojXDF6G0puY-58">
          <mxGeometry relative="1" as="geometry">
            <Array as="points">
              <mxPoint x="287" y="386" />
              <mxPoint x="287" y="380" />
            </Array>
          </mxGeometry>
        </mxCell>
        <mxCell id="R2l4qmwrGojXDF6G0puY-55" value="" style="image;aspect=fixed;perimeter=ellipsePerimeter;html=1;align=center;shadow=0;dashed=0;spacingTop=3;image=img/lib/active_directory/router.svg;" vertex="1" parent="1">
          <mxGeometry x="270" y="376.40999999999997" width="68.47" height="30" as="geometry" />
        </mxCell>
        <mxCell id="R2l4qmwrGojXDF6G0puY-57" value="" style="image;aspect=fixed;perimeter=ellipsePerimeter;html=1;align=center;shadow=0;dashed=0;spacingTop=3;image=img/lib/active_directory/pda.svg;" vertex="1" parent="1">
          <mxGeometry x="680" y="423.71000000000004" width="27" height="50" as="geometry" />
        </mxCell>
        <mxCell id="R2l4qmwrGojXDF6G0puY-64" value="" style="edgeStyle=orthogonalEdgeStyle;rounded=0;orthogonalLoop=1;jettySize=auto;html=1;shape=link;" edge="1" parent="1" source="R2l4qmwrGojXDF6G0puY-58" target="R2l4qmwrGojXDF6G0puY-40">
          <mxGeometry relative="1" as="geometry" />
        </mxCell>
        <mxCell id="R2l4qmwrGojXDF6G0puY-58" value="" style="image;aspect=fixed;perimeter=ellipsePerimeter;html=1;align=center;shadow=0;dashed=0;spacingTop=3;image=img/lib/active_directory/router.svg;" vertex="1" parent="1">
          <mxGeometry x="484" y="373.92999999999995" width="46" height="34.96" as="geometry" />
        </mxCell>
        <mxCell id="R2l4qmwrGojXDF6G0puY-66" value="" style="shape=waypoint;sketch=0;size=6;pointerEvents=1;points=[];fillColor=default;resizable=0;rotatable=0;perimeter=centerPerimeter;snapToPoint=1;verticalAlign=top;labelBackgroundColor=default;shadow=0;dashed=0;spacingTop=3;" vertex="1" parent="1">
          <mxGeometry x="294.24" y="376.4050000000001" width="20" height="20" as="geometry" />
        </mxCell>
        <mxCell id="R2l4qmwrGojXDF6G0puY-91" value="" style="html=1;strokeWidth=1;shadow=0;dashed=0;shape=mxgraph.ios7.misc.vpn;fillColor=#007AFF;strokeColor=none;buttonText=;strokeColor2=#222222;fontColor=#222222;fontSize=8;verticalLabelPosition=bottom;verticalAlign=top;align=center;sketch=0;" vertex="1" parent="1">
          <mxGeometry x="259.24" y="240" width="35" height="20" as="geometry" />
        </mxCell>
        <mxCell id="R2l4qmwrGojXDF6G0puY-95" value="" style="image;aspect=fixed;perimeter=ellipsePerimeter;html=1;align=center;shadow=0;dashed=0;spacingTop=3;image=img/lib/active_directory/windows_server.svg;" vertex="1" parent="1">
          <mxGeometry x="85" y="417.99999999999994" width="30" height="36.59" as="geometry" />
        </mxCell>
        <mxCell id="R2l4qmwrGojXDF6G0puY-98" value="" style="image;aspect=fixed;perimeter=ellipsePerimeter;html=1;align=center;shadow=0;dashed=0;spacingTop=3;image=img/lib/active_directory/windows_server.svg;" vertex="1" parent="1">
          <mxGeometry x="30" y="417.09" width="31" height="37.8" as="geometry" />
        </mxCell>
        <mxCell id="R2l4qmwrGojXDF6G0puY-100" value="" style="image;aspect=fixed;html=1;points=[];align=center;fontSize=12;image=img/lib/azure2/databases/Azure_Database_MySQL_Server.svg;" vertex="1" parent="1">
          <mxGeometry x="550" y="24.380000000000003" width="22.5" height="30" as="geometry" />
        </mxCell>
        <mxCell id="R2l4qmwrGojXDF6G0puY-101" value="" style="endArrow=none;html=1;rounded=0;" edge="1" parent="1">
          <mxGeometry width="50" height="50" relative="1" as="geometry">
            <mxPoint x="320" y="10" as="sourcePoint" />
            <mxPoint x="650" y="10" as="targetPoint" />
            <Array as="points" />
          </mxGeometry>
        </mxCell>
        <mxCell id="R2l4qmwrGojXDF6G0puY-102" value="" style="endArrow=none;html=1;rounded=0;" edge="1" parent="1">
          <mxGeometry width="50" height="50" relative="1" as="geometry">
            <mxPoint x="319.24" y="200.52" as="sourcePoint" />
            <mxPoint x="319.49" y="10.52" as="targetPoint" />
          </mxGeometry>
        </mxCell>
        <mxCell id="R2l4qmwrGojXDF6G0puY-103" value="" style="image;aspect=fixed;html=1;points=[];align=center;fontSize=12;image=img/lib/azure2/networking/Web_Application_Firewall_Policies_WAF.svg;" vertex="1" parent="1">
          <mxGeometry x="341.17" y="54.379999999999995" width="36.59" height="36.59" as="geometry" />
        </mxCell>
        <mxCell id="R2l4qmwrGojXDF6G0puY-106" value="" style="image;sketch=0;aspect=fixed;html=1;points=[];align=center;fontSize=12;image=img/lib/mscae/App_Services.svg;" vertex="1" parent="1">
          <mxGeometry x="470" y="50.67" width="24" height="24" as="geometry" />
        </mxCell>
        <mxCell id="R2l4qmwrGojXDF6G0puY-107" value="" style="endArrow=none;html=1;rounded=0;" edge="1" parent="1">
          <mxGeometry width="50" height="50" relative="1" as="geometry">
            <mxPoint x="650" y="200" as="sourcePoint" />
            <mxPoint x="650" y="10" as="targetPoint" />
          </mxGeometry>
        </mxCell>
        <mxCell id="R2l4qmwrGojXDF6G0puY-108" value="" style="endArrow=none;html=1;rounded=0;" edge="1" parent="1">
          <mxGeometry width="50" height="50" relative="1" as="geometry">
            <mxPoint x="320" y="200" as="sourcePoint" />
            <mxPoint x="650" y="200" as="targetPoint" />
            <Array as="points" />
          </mxGeometry>
        </mxCell>
        <mxCell id="R2l4qmwrGojXDF6G0puY-127" value="" style="edgeStyle=orthogonalEdgeStyle;rounded=0;orthogonalLoop=1;jettySize=auto;html=1;shape=link;" edge="1" parent="1" source="R2l4qmwrGojXDF6G0puY-116" target="R2l4qmwrGojXDF6G0puY-126">
          <mxGeometry relative="1" as="geometry" />
        </mxCell>
        <mxCell id="R2l4qmwrGojXDF6G0puY-116" value="" style="image;aspect=fixed;html=1;points=[];align=center;fontSize=12;image=img/lib/azure2/networking/Virtual_Network_Gateways.svg;" vertex="1" parent="1">
          <mxGeometry x="270" y="140" width="45.22" height="60" as="geometry" />
        </mxCell>
        <mxCell id="R2l4qmwrGojXDF6G0puY-117" value="" style="image;sketch=0;aspect=fixed;html=1;points=[];align=center;fontSize=12;image=img/lib/mscae/App_Services.svg;" vertex="1" parent="1">
          <mxGeometry x="480" y="140" width="20" height="20" as="geometry" />
        </mxCell>
        <mxCell id="R2l4qmwrGojXDF6G0puY-118" value="" style="image;aspect=fixed;html=1;points=[];align=center;fontSize=12;image=img/lib/azure2/networking/Virtual_Networks.svg;" vertex="1" parent="1">
          <mxGeometry x="321.17" y="183.58" width="20" height="11.94" as="geometry" />
        </mxCell>
        <mxCell id="R2l4qmwrGojXDF6G0puY-119" value="Frontend" style="text;html=1;align=center;verticalAlign=middle;resizable=0;points=[];autosize=1;strokeColor=none;fillColor=none;" vertex="1" parent="1">
          <mxGeometry x="449.75" y="74.67" width="70" height="30" as="geometry" />
        </mxCell>
        <mxCell id="R2l4qmwrGojXDF6G0puY-120" value="Backoffice" style="text;html=1;align=center;verticalAlign=middle;resizable=0;points=[];autosize=1;strokeColor=none;fillColor=none;" vertex="1" parent="1">
          <mxGeometry x="450" y="160" width="80" height="30" as="geometry" />
        </mxCell>
        <mxCell id="R2l4qmwrGojXDF6G0puY-122" value="" style="endArrow=none;html=1;rounded=0;exitX=-0.003;exitY=1.02;exitDx=0;exitDy=0;exitPerimeter=0;" edge="1" parent="1" source="R2l4qmwrGojXDF6G0puY-120">
          <mxGeometry width="50" height="50" relative="1" as="geometry">
            <mxPoint x="450" y="110" as="sourcePoint" />
            <mxPoint x="449.75" y="37.33" as="targetPoint" />
            <Array as="points" />
          </mxGeometry>
        </mxCell>
        <mxCell id="R2l4qmwrGojXDF6G0puY-123" value="" style="endArrow=none;html=1;rounded=0;exitX=0.99;exitY=0.967;exitDx=0;exitDy=0;exitPerimeter=0;" edge="1" parent="1" source="R2l4qmwrGojXDF6G0puY-120">
          <mxGeometry width="50" height="50" relative="1" as="geometry">
            <mxPoint x="530" y="110" as="sourcePoint" />
            <mxPoint x="528.8" y="37.33" as="targetPoint" />
            <Array as="points" />
          </mxGeometry>
        </mxCell>
        <mxCell id="R2l4qmwrGojXDF6G0puY-124" value="" style="endArrow=none;html=1;rounded=0;" edge="1" parent="1">
          <mxGeometry width="50" height="50" relative="1" as="geometry">
            <mxPoint x="449" y="37" as="sourcePoint" />
            <mxPoint x="529" y="37" as="targetPoint" />
            <Array as="points" />
          </mxGeometry>
        </mxCell>
        <mxCell id="R2l4qmwrGojXDF6G0puY-125" value="" style="endArrow=none;html=1;rounded=0;" edge="1" parent="1">
          <mxGeometry width="50" height="50" relative="1" as="geometry">
            <mxPoint x="449.75" y="190" as="sourcePoint" />
            <mxPoint x="529.75" y="190" as="targetPoint" />
            <Array as="points" />
          </mxGeometry>
        </mxCell>
        <mxCell id="R2l4qmwrGojXDF6G0puY-126" value="" style="shape=waypoint;sketch=0;size=6;pointerEvents=1;points=[];fillColor=default;resizable=0;rotatable=0;perimeter=centerPerimeter;snapToPoint=1;verticalAlign=top;labelBackgroundColor=default;" vertex="1" parent="1">
          <mxGeometry x="239.24" y="340.02" width="20" height="20" as="geometry" />
        </mxCell>
        <mxCell id="R2l4qmwrGojXDF6G0puY-129" value="" style="endArrow=none;html=1;rounded=0;" edge="1" parent="1">
          <mxGeometry width="50" height="50" relative="1" as="geometry">
            <mxPoint x="560" y="48.5" as="sourcePoint" />
            <mxPoint x="640" y="48.5" as="targetPoint" />
            <Array as="points">
              <mxPoint x="601" y="48.5" />
            </Array>
          </mxGeometry>
        </mxCell>
        <mxCell id="R2l4qmwrGojXDF6G0puY-130" value="" style="endArrow=none;html=1;rounded=0;" edge="1" parent="1">
          <mxGeometry width="50" height="50" relative="1" as="geometry">
            <mxPoint x="560" y="110" as="sourcePoint" />
            <mxPoint x="640" y="110" as="targetPoint" />
            <Array as="points" />
          </mxGeometry>
        </mxCell>
        <mxCell id="R2l4qmwrGojXDF6G0puY-131" value="" style="endArrow=none;html=1;rounded=0;" edge="1" parent="1">
          <mxGeometry width="50" height="50" relative="1" as="geometry">
            <mxPoint x="640" y="110" as="sourcePoint" />
            <mxPoint x="639.31" y="48.670000000000016" as="targetPoint" />
            <Array as="points" />
          </mxGeometry>
        </mxCell>
        <mxCell id="R2l4qmwrGojXDF6G0puY-133" value="" style="endArrow=none;html=1;rounded=0;" edge="1" parent="1">
          <mxGeometry width="50" height="50" relative="1" as="geometry">
            <mxPoint x="560.69" y="110.33" as="sourcePoint" />
            <mxPoint x="560" y="49.000000000000014" as="targetPoint" />
            <Array as="points" />
          </mxGeometry>
        </mxCell>
        <mxCell id="R2l4qmwrGojXDF6G0puY-134" value="" style="endArrow=none;html=1;rounded=0;" edge="1" parent="1">
          <mxGeometry width="50" height="50" relative="1" as="geometry">
            <mxPoint x="330" y="170" as="sourcePoint" />
            <mxPoint x="330" y="36.33" as="targetPoint" />
            <Array as="points" />
          </mxGeometry>
        </mxCell>
        <mxCell id="R2l4qmwrGojXDF6G0puY-135" value="" style="endArrow=none;html=1;rounded=0;" edge="1" parent="1">
          <mxGeometry width="50" height="50" relative="1" as="geometry">
            <mxPoint x="330" y="37" as="sourcePoint" />
            <mxPoint x="390" y="37" as="targetPoint" />
            <Array as="points" />
          </mxGeometry>
        </mxCell>
        <mxCell id="R2l4qmwrGojXDF6G0puY-136" value="" style="endArrow=none;html=1;rounded=0;" edge="1" parent="1">
          <mxGeometry width="50" height="50" relative="1" as="geometry">
            <mxPoint x="330" y="169.67000000000002" as="sourcePoint" />
            <mxPoint x="390" y="170" as="targetPoint" />
            <Array as="points" />
          </mxGeometry>
        </mxCell>
        <mxCell id="R2l4qmwrGojXDF6G0puY-138" value="" style="endArrow=none;html=1;rounded=0;" edge="1" parent="1">
          <mxGeometry width="50" height="50" relative="1" as="geometry">
            <mxPoint x="390.44" y="170" as="sourcePoint" />
            <mxPoint x="390.44" y="36.33" as="targetPoint" />
            <Array as="points">
              <mxPoint x="390" y="100" />
            </Array>
          </mxGeometry>
        </mxCell>
        <mxCell id="R2l4qmwrGojXDF6G0puY-139" value="" style="image;aspect=fixed;html=1;points=[];align=center;fontSize=12;image=img/lib/azure2/networking/Load_Balancers.svg;" vertex="1" parent="1">
          <mxGeometry x="341.17" y="108" width="42" height="42" as="geometry" />
        </mxCell>
        <mxCell id="R2l4qmwrGojXDF6G0puY-141" value="" style="image;aspect=fixed;html=1;points=[];align=center;fontSize=12;image=img/lib/azure2/app_services/App_Service_Plans.svg;" vertex="1" parent="1">
          <mxGeometry x="430" y="20.38" width="24" height="24" as="geometry" />
        </mxCell>
        <mxCell id="R2l4qmwrGojXDF6G0puY-142" value="" style="endArrow=classic;html=1;rounded=0;" edge="1" parent="1">
          <mxGeometry width="50" height="50" relative="1" as="geometry">
            <mxPoint x="388.75" y="108" as="sourcePoint" />
            <mxPoint x="449.75" y="108" as="targetPoint" />
            <Array as="points">
              <mxPoint x="419.75" y="108" />
            </Array>
          </mxGeometry>
        </mxCell>
        <mxCell id="R2l4qmwrGojXDF6G0puY-143" value="" style="endArrow=classic;html=1;rounded=0;" edge="1" parent="1">
          <mxGeometry width="50" height="50" relative="1" as="geometry">
            <mxPoint x="177.04000000000002" y="74.67" as="sourcePoint" />
            <mxPoint x="330" y="75" as="targetPoint" />
            <Array as="points" />
          </mxGeometry>
        </mxCell>
        <mxCell id="R2l4qmwrGojXDF6G0puY-144" value="AD" style="text;html=1;align=center;verticalAlign=middle;resizable=0;points=[];autosize=1;strokeColor=none;fillColor=none;" vertex="1" parent="1">
          <mxGeometry x="25.5" y="453.37" width="40" height="30" as="geometry" />
        </mxCell>
        <mxCell id="R2l4qmwrGojXDF6G0puY-145" value="File Server" style="text;html=1;align=center;verticalAlign=middle;resizable=0;points=[];autosize=1;strokeColor=none;fillColor=none;" vertex="1" parent="1">
          <mxGeometry x="60" y="453.37" width="80" height="30" as="geometry" />
        </mxCell>
        <mxCell id="R2l4qmwrGojXDF6G0puY-146" value="Print Server" style="text;html=1;align=center;verticalAlign=middle;resizable=0;points=[];autosize=1;strokeColor=none;fillColor=none;" vertex="1" parent="1">
          <mxGeometry x="130" y="453.37" width="90" height="30" as="geometry" />
        </mxCell>
        <mxCell id="R2l4qmwrGojXDF6G0puY-147" value="AD Connect" style="text;html=1;align=center;verticalAlign=middle;resizable=0;points=[];autosize=1;strokeColor=none;fillColor=none;" vertex="1" parent="1">
          <mxGeometry x="204.24" y="453.37" width="90" height="30" as="geometry" />
        </mxCell>
        <mxCell id="R2l4qmwrGojXDF6G0puY-151" value="" style="image;aspect=fixed;perimeter=ellipsePerimeter;html=1;align=center;shadow=0;dashed=0;spacingTop=3;image=img/lib/active_directory/internet_globe.svg;" vertex="1" parent="1">
          <mxGeometry x="115" y="48" width="50" height="50" as="geometry" />
        </mxCell>
        <mxCell id="R2l4qmwrGojXDF6G0puY-152" value="" style="outlineConnect=0;dashed=0;verticalLabelPosition=bottom;verticalAlign=top;align=center;html=1;shape=mxgraph.aws3.ms_sql_instance;fillColor=#2E73B8;gradientColor=none;" vertex="1" parent="1">
          <mxGeometry x="578.5" y="58" width="30" height="40" as="geometry" />
        </mxCell>
        <mxCell id="R2l4qmwrGojXDF6G0puY-154" value="" style="image;aspect=fixed;html=1;points=[];align=center;fontSize=12;image=img/lib/azure2/networking/Network_Security_Groups.svg;" vertex="1" parent="1">
          <mxGeometry x="367.17" y="180.57" width="16" height="19.43" as="geometry" />
        </mxCell>
        <mxCell id="R2l4qmwrGojXDF6G0puY-156" value="" style="endArrow=classic;html=1;rounded=0;" edge="1" parent="1">
          <mxGeometry width="50" height="50" relative="1" as="geometry">
            <mxPoint x="530" y="98" as="sourcePoint" />
            <mxPoint x="560.1899999999999" y="98" as="targetPoint" />
            <Array as="points">
              <mxPoint x="530.1899999999999" y="98" />
            </Array>
          </mxGeometry>
        </mxCell>
        <mxCell id="R2l4qmwrGojXDF6G0puY-157" value="" style="image;aspect=fixed;html=1;points=[];align=center;fontSize=12;image=img/lib/azure2/networking/Private_Endpoint.svg;" vertex="1" parent="1">
          <mxGeometry x="507" y="150" width="22" height="20.17" as="geometry" />
        </mxCell>
      </root>
    </mxGraphModel>
  </diagram>
</mxfile>
